<svg version="1.1" viewBox="0.0 0.0 215.4461942257218 229.46194225721786" fill="none" stroke="none" stroke-linecap="square" stroke-miterlimit="10" xmlns:xlink="http://www.w3.org/1999/xlink" xmlns="http://www.w3.org/2000/svg"><clipPath id="p.0"><path d="m0 0l215.4462 0l0 229.46194l-215.4462 0l0 -229.46194z" clip-rule="nonzero"/></clipPath><g clip-path="url(#p.0)"><path fill="#000000" fill-opacity="0.0" d="m0 0l215.4462 0l0 229.46194l-215.4462 0z" fill-rule="evenodd"/><path fill="#000000" fill-opacity="0.0" d="m23.112862 35.53281l0 151.87402" fill-rule="evenodd"/><path stroke="#000000" stroke-width="8.0" stroke-linejoin="round" stroke-linecap="butt" d="m23.112862 35.53281l0 103.87402" fill-rule="evenodd"/><path fill="#000000" stroke="#000000" stroke-width="8.0" stroke-linecap="butt" d="m9.899001 139.40683l13.2138605 36.30478l13.21386 -36.30478z" fill-rule="evenodd"/><path fill="#000000" fill-opacity="0.0" d="m23.112862 35.53281l151.87402 0" fill-rule="evenodd"/><path stroke="#000000" stroke-width="8.0" stroke-linejoin="round" stroke-linecap="butt" d="m23.112862 35.53281l103.874016 0" fill-rule="evenodd"/><path fill="#000000" stroke="#000000" stroke-width="8.0" stroke-linecap="butt" d="m126.98688 48.74667l36.30478 -13.21386l-36.30478 -13.213861z" fill-rule="evenodd"/><path fill="#000000" fill-opacity="0.0" d="m174.98688 0l33.606293 0l0 30.929134l-33.606293 0z" fill-rule="evenodd"/><path fill="#000000" d="m196.59625 30.820621l-6.25 -11.515625l-4.375 0l8.53125 14.5625l-8.765625 14.8125l4.421875 0l6.515625 -11.75l6.5 11.75l4.359375 0l-8.734375 -14.8125l8.53125 -14.5625l-4.390625 0l-6.34375 11.515625z" fill-rule="nonzero"/><path fill="#000000" fill-opacity="0.0" d="m0 175.8084l33.6063 0l0 30.929138l-33.6063 0z" fill-rule="evenodd"/><path fill="#000000" d="m21.171875 209.86339l-6.6875 -14.75l-4.25 0l9.140625 18.421875l0.0625 10.953125l3.46875 0l0.0625 -10.953125l9.140625 -18.421875l-4.234375 0l-6.703125 14.75z" fill-rule="nonzero"/></g></svg>